<?xml version="1.0" standalone="no"?>
<!DOCTYPE svg PUBLIC "-//W3C//DTD SVG 20010904//EN"
 "http://www.w3.org/TR/2001/REC-SVG-20010904/DTD/svg10.dtd">
<svg version="1.0" xmlns="http://www.w3.org/2000/svg"
 width="80.000000pt" height="80.000000pt" viewBox="0 0 80.000000 80.000000"
 preserveAspectRatio="xMidYMid meet">
<metadata>
Created by potrace 1.14, written by Peter Selinger 2001-2017
</metadata>
<g transform="translate(0.000000,80.000000) scale(0.100000,-0.100000)"
fill="#000000" stroke="none">
<path d="M29 788 c0 -7 -3 -22 -5 -33 -3 -11 -7 -90 -8 -175 -2 -85 -7 -195
-11 -244 -8 -108 7 -157 65 -210 81 -73 237 -130 344 -125 150 7 304 86 362
185 25 42 26 48 19 142 -4 53 -9 165 -11 247 -1 83 -5 159 -8 170 -2 11 -5 28
-5 37 -1 15 -7 17 -38 12 -53 -8 -138 -39 -181 -65 -32 -19 -53 -23 -147 -24
-98 -1 -114 1 -151 22 -81 46 -223 85 -225 61z m161 -70 l65 -30 -34 -17 -34
-18 -45 34 c-25 18 -50 32 -56 30 -6 -2 -12 -26 -14 -53 -6 -112 -27 -127 -23
-16 3 104 8 114 45 107 17 -4 60 -20 96 -37z m552 24 c9 -32 9 -177 1 -168 -4
4 -10 37 -13 74 -3 36 -10 67 -16 69 -6 2 -31 -12 -56 -30 -44 -34 -45 -34
-77 -17 l-33 16 25 17 c25 16 132 56 153 57 7 0 14 -8 16 -18z m-381 -141 c38
-80 43 -80 83 9 30 66 48 74 70 33 31 -58 33 -59 53 -36 14 16 26 20 56 16 30
-4 35 -8 26 -19 -8 -10 -7 -12 8 -9 11 2 26 -1 34 -6 11 -7 11 -9 -3 -9 -10 0
-18 -7 -18 -16 0 -8 5 -12 10 -9 6 3 10 -1 10 -11 0 -14 2 -14 16 -3 14 12 16
9 14 -21 -5 -59 -1 -73 15 -66 12 4 15 -5 15 -55 0 -34 4 -58 9 -55 10 7 8
-26 -4 -63 -5 -16 -4 -21 4 -17 19 12 12 -27 -12 -65 -76 -124 -289 -195 -453
-153 -123 33 -224 101 -254 174 -10 24 -10 34 -1 39 9 6 9 15 1 36 -11 29 -6
60 7 52 5 -3 6 21 5 54 -3 51 -2 58 12 53 17 -7 21 6 17 64 -2 28 0 32 23 32
29 0 37 30 9 31 -15 0 -15 2 2 8 11 5 27 6 35 3 12 -5 13 -3 2 10 -11 14 -8
16 25 21 29 4 42 0 55 -14 22 -26 25 -25 48 21 11 22 27 40 34 40 8 0 29 -31
47 -69z"/>
<path d="M145 477 c-30 -30 -35 -42 -35 -80 0 -30 7 -53 21 -71 18 -22 27 -26
72 -25 l52 2 -49 6 c-56 8 -76 29 -76 78 0 89 79 136 137 81 28 -26 30 -20 4
11 -11 12 -35 25 -55 28 -31 5 -40 1 -71 -30z"/>
<path d="M555 499 c-12 -6 -27 -20 -34 -31 -13 -21 -13 -21 14 0 61 48 135 9
135 -73 0 -59 -18 -78 -81 -86 l-54 -6 57 -2 c50 -1 59 2 77 25 14 18 21 41
21 71 0 38 -5 50 -34 79 -35 35 -63 41 -101 23z"/>
<path d="M202 438 c-22 -22 -15 -76 13 -94 23 -15 27 -15 50 0 18 12 25 25 25
49 0 40 -15 57 -50 57 -14 0 -31 -5 -38 -12z"/>
<path d="M523 438 c-23 -29 -22 -60 2 -84 29 -29 36 -29 65 -6 25 20 30 63 10
87 -15 18 -64 20 -77 3z"/>
<path d="M345 320 c-8 -13 11 -47 35 -60 33 -18 85 23 73 58 -6 14 -99 17
-108 2z"/>
<path d="M260 230 c-22 -5 -25 -12 -24 -46 1 -66 46 -110 132 -129 81 -17 185
40 198 111 9 47 1 61 -38 67 -46 7 -238 5 -268 -3z m197 -121 c26 -10 27 -12
8 -19 -25 -11 -92 -11 -125 0 l-25 7 25 11 c33 14 82 15 117 1z"/>
</g>
</svg>
